<?xml version="1.0" encoding="UTF-8" standalone="no"?>
<svg
   xmlns:dc="http://purl.org/dc/elements/1.1/"
   xmlns:cc="http://creativecommons.org/ns#"
   xmlns:rdf="http://www.w3.org/1999/02/22-rdf-syntax-ns#"
   xmlns:svg="http://www.w3.org/2000/svg"
   xmlns="http://www.w3.org/2000/svg"
   xmlns:sodipodi="http://sodipodi.sourceforge.net/DTD/sodipodi-0.dtd"
   xmlns:inkscape="http://www.inkscape.org/namespaces/inkscape"
   width="158.75mm"
   height="80.577362mm"
   viewBox="0 0 158.75 80.577362"
   version="1.1"
   id="svg8"
   inkscape:version="1.0.1 (3bc2e813f5, 2020-09-07)"
   sodipodi:docname="HOSLogo.svg">
  <defs
     id="defs2" />
  <sodipodi:namedview
     id="base"
     pagecolor="#ffffff"
     bordercolor="#666666"
     borderopacity="1.0"
     inkscape:pageopacity="0.0"
     inkscape:pageshadow="2"
     inkscape:zoom="0.7"
     inkscape:cx="352.09036"
     inkscape:cy="180.04076"
     inkscape:document-units="mm"
     inkscape:current-layer="g843"
     inkscape:document-rotation="0"
     showgrid="false"
     fit-margin-top="0"
     fit-margin-left="0"
     fit-margin-right="0"
     fit-margin-bottom="0"
     inkscape:window-width="1600"
     inkscape:window-height="837"
     inkscape:window-x="-8"
     inkscape:window-y="-8"
     inkscape:window-maximized="1" />
  <metadata
     id="metadata5">
    <rdf:RDF>
      <cc:Work
         rdf:about="">
        <dc:format>image/svg+xml</dc:format>
        <dc:type
           rdf:resource="http://purl.org/dc/dcmitype/StillImage" />
        <dc:title></dc:title>
      </cc:Work>
    </rdf:RDF>
  </metadata>
  <g
     inkscape:label="Layer 1"
     inkscape:groupmode="layer"
     id="layer1"
     transform="translate(-18.124377,-46.500352)">
    <g
       id="g843"
       transform="matrix(0.35277777,0,0,0.35277777,-74.644197,8.1542096)">
      <g
         id="g1929"
         transform="matrix(1.3429836,0,0,1.3429836,-90.193049,-37.281541)">
        <path
           d="m 496.61025,159.46391 2.79371,0.40263 v -4.27485 l -2.79371,-0.39827 z"
           style="fill:#1a1a1a;fill-opacity:1;fill-rule:nonzero;stroke:none;stroke-width:1.45353"
           id="path865" />
        <path
           d="m 489.66673,153.82564 v 4.27485 l 2.73699,0.39827 0.0567,-4.2763 z"
           style="fill:#1a1a1a;fill-opacity:1;fill-rule:nonzero;stroke:none;stroke-width:1.45353"
           id="path867" />
        <path
           d="m 393.64909,146.87484 -2.7879,0.28489 v 4.27485 l 2.7879,-0.28926 z"
           style="fill:#1a1a1a;fill-opacity:1;fill-rule:nonzero;stroke:none;stroke-width:1.45353"
           id="path869" />
        <path
           d="m 397.80475,145.7905 v 4.2763 l 2.78786,-0.34739 v -4.26904 z"
           style="fill:#1a1a1a;fill-opacity:1;fill-rule:nonzero;stroke:none;stroke-width:1.45353"
           id="path871" />
        <path
           d="m 367.1831,151.43458 v 4.27048 l 2.78788,-0.39827 v -4.27484 z"
           style="fill:#1a1a1a;fill-opacity:1;fill-rule:nonzero;stroke:none;stroke-width:1.45353"
           id="path873" />
        <path
           d="m 407.53615,144.08259 -2.73119,0.34013 -0.0567,4.21816 2.78788,-0.28344 z"
           style="fill:#1a1a1a;fill-opacity:1;fill-rule:nonzero;stroke:none;stroke-width:1.45353"
           id="path875" />
        <path
           d="m 326.25736,180.83524 c -9.04971,0 -13.83039,6.7226 -13.83039,15.77812 0,9.00465 3.75884,15.15456 12.75187,15.15456 6.54672,0 10.93058,-2.33438 12.29255,-2.84457 l -0.85178,-3.02044 c -1.87942,0.62356 -6.71678,1.76604 -9.73142,1.76604 -5.97839,0 -8.8811,-3.64546 -9.10785,-10.08463 l 19.9178,-1.42446 c 0,-9.40292 -2.04949,-15.32462 -11.44078,-15.32462 z m -8.53371,13.04112 c 0.79509,-7.17611 1.53348,-8.99884 8.30696,-8.99884 5.80833,0 6.77347,3.87222 6.77347,7.69356 z"
           style="fill:#1a1a1a;fill-opacity:1;fill-rule:nonzero;stroke:none;stroke-width:1.45353"
           id="path877" />
        <path
           d="m 359.95612,185.38916 c 0.68171,0 1.64686,0 2.04949,0.22675 l 0.62502,3.70797 h 3.58151 l 0.51746,-7.5235 c -1.31109,-0.73839 -3.02045,-1.02765 -4.61062,-1.02765 -5.23999,0 -8.87964,4.44492 -9.90729,7.06855 l -0.62502,-5.92752 h -9.33461 v 2.79369 l 3.81553,0.39682 c 1.30673,0.11338 1.87943,0.62502 1.87943,2.34019 v 17.71424 c 0,1.70935 -0.51601,2.22536 -1.82274,2.33874 l -3.87222,0.39826 v 4.21816 h 15.36969 v -4.16147 l -3.81553,-0.45495 c -1.30528,-0.11338 -0.73695,-0.62939 -0.73695,-2.33874 v -12.70099 c 0,-2.73701 3.01464,-7.06855 6.88685,-7.06855 z"
           style="fill:#1a1a1a;fill-opacity:1;fill-rule:nonzero;stroke:none;stroke-width:1.45353"
           id="path879" />
        <path
           d="m 373.38971,207.44075 -3.81554,0.39827 v 4.21816 h 15.36387 v -4.21816 l -3.80972,-0.39827 c -1.31107,-0.17007 -1.87942,-0.62938 -1.87942,-2.33874 v -23.24494 h -9.67473 v 2.7937 l 3.81554,0.39681 c 1.30526,0.11338 1.8736,0.62502 1.8736,2.33874 v 17.71569 c 0,1.70936 -0.56834,2.16867 -1.8736,2.33874 z"
           style="fill:#1a1a1a;fill-opacity:1;fill-rule:nonzero;stroke:none;stroke-width:1.45353"
           id="path881" />
        <path
           d="m 406.96927,210.63271 0.56688,-3.13527 c -1.59451,0.2282 -3.69633,0.45495 -4.89405,0.45495 -5.34901,0 -6.37665,-2.90707 -6.37665,-8.82877 v -13.27514 h 9.67619 v -5.01324 l -9.67619,0.62356 v -6.60777 l -4.55394,1.14103 v 5.52343 l -3.97976,0.56833 v 3.82135 h 3.97976 v 14.12691 c 0,7.29529 0.46077,11.79253 7.74591,11.79253 2.33292,-0.0567 6.36937,-0.68171 7.51185,-1.1919 z"
           style="fill:#1a1a1a;fill-opacity:1;fill-rule:nonzero;stroke:none;stroke-width:1.45353"
           id="path883" />
        <path
           d="m 419.14699,194.96069 c -5.5176,0.74421 -8.5395,3.93472 -8.5395,8.83604 0,4.72399 3.07858,7.85782 7.74587,7.85782 3.98559,0 7.56857,-1.48261 10.86663,-4.89987 l 0.51747,5.3025 h 9.27645 v -4.21816 l -3.87222,-0.39827 c -1.31108,-0.11338 -1.82273,-0.62938 -1.82273,-2.33874 v -15.72144 c 0,-6.21241 -5.23417,-8.48865 -11.09918,-8.48865 -3.58298,0 -5.68915,0.68026 -10.29975,2.33293 l 0.51019,7.17756 h 3.58878 l 0.90844,-4.61062 c 1.25442,-0.57414 3.58878,-1.2544 5.58158,-1.2544 3.75304,0 6.83016,1.19771 6.83016,4.95656 v 4.15565 z m 10.19219,7.5235 c -2.85037,1.59598 -5.58157,4.89987 -8.93633,4.89987 -2.61781,0 -4.6106,-1.42446 -4.6106,-4.0481 0,-2.73119 1.87942,-4.49723 4.78066,-4.95655 l 8.76627,-1.42447 z"
           style="fill:#1a1a1a;fill-opacity:1;fill-rule:nonzero;stroke:none;stroke-width:1.45353"
           id="path885" />
        <path
           d="m 469.80561,216.15615 c 0,-3.70071 -1.87943,-5.75164 -5.92171,-6.38102 -3.97976,-0.62502 -7.05835,-1.02184 -10.29975,-1.48261 -1.25439,-0.17006 -1.93611,-0.4535 -1.93611,-1.30528 l 1.36778,-3.65128 c 0.62502,0.0567 1.19337,0.0567 1.81693,0.0567 7.40431,0 12.92337,-4.78649 12.92337,-11.62247 0,-2.85038 -0.68169,-5.35337 -2.21955,-7.29093 1.65123,-0.11338 3.64403,-0.74276 4.78069,-1.65122 v -3.36202 c -1.13666,0.28489 -3.81553,0.96514 -5.91734,1.07852 -2.79371,0.17152 -5.52489,0.17152 -7.80112,0.17152 h -0.22675 c -9.78956,0 -13.32022,6.21095 -13.32022,11.39426 0,4.90132 2.10618,8.83604 6.54673,10.54395 l -3.12945,4.95801 c 0,3.41726 1.87942,5.01324 4.38385,5.46674 3.58298,0.68752 6.31416,0.97096 9.67474,1.36923 2.67449,0.28344 4.49723,0.79945 4.49723,2.7937 0,3.98559 -3.47541,4.95654 -8.53951,4.95654 -3.80973,0 -7.79532,-0.85757 -9.50468,-2.1643 v -4.55829 h -3.29953 l -1.31107,7.57437 c 2.44774,2.16868 7.34179,3.59314 12.86668,3.59314 8.81715,0 14.56879,-4.84318 14.56879,-10.48725 z m -21.62714,-24.04584 c 0,-2.55968 0.39825,-4.49578 1.24857,-5.75164 0.91429,-1.31109 2.67451,-2.10617 5.63826,-2.10617 5.29234,0 7.68339,2.78788 7.68339,7.00749 0,2.33293 -0.11483,4.61498 -1.25585,6.15427 -1.19189,1.59598 -3.07131,2.44775 -5.8592,2.44775 -5.23562,0 -7.45517,-3.30533 -7.45517,-7.7517 z"
           style="fill:#1a1a1a;fill-opacity:1;fill-rule:nonzero;stroke:none;stroke-width:1.45353"
           id="path887" />
        <path
           d="m 487.79311,180.83524 c -9.05115,0 -13.83185,6.7226 -13.83185,15.77812 0,9.00465 3.75305,15.15456 12.74751,15.15456 6.54674,0 10.92915,-2.33438 12.29255,-2.84457 l -0.85177,-3.02044 c -1.87943,0.62356 -6.71678,1.76604 -9.73142,1.76604 -5.97985,0 -8.88109,-3.64546 -9.10784,-10.08463 l 19.91778,-1.42446 c 0,-9.40292 -2.04366,-15.32462 -11.43496,-15.32462 z m -8.53951,13.04112 c 0.79507,-7.17611 1.53929,-8.99884 8.30695,-8.99884 5.80833,0 6.77347,3.87222 6.77347,7.69356 z"
           style="fill:#1a1a1a;fill-opacity:1;fill-rule:nonzero;stroke:none;stroke-width:1.45353"
           id="path889" />
        <path
           d="m 312.94298,237.23821 c -11.10065,0 -15.313,8.37528 -15.313,15.50051 0,8.94361 3.70216,15.49614 13.26351,15.49614 11.15152,0 15.30718,-8.37527 15.30718,-15.49614 0,-9.00465 -3.69634,-15.50051 -13.25769,-15.50051 z m 5.34901,25.12581 c -1.14103,1.14104 -3.07278,1.70792 -5.86502,1.70792 -6.20078,0 -9.50467,-4.26903 -9.50467,-11.16171 0,-3.30534 0.74276,-8.03513 2.61637,-9.91455 1.14102,-1.14103 3.07859,-1.70791 5.86501,-1.70791 6.2066,0 9.50612,4.26904 9.50612,11.10501 0,3.36203 -0.73839,8.09182 -2.61781,9.97124 z"
           style="fill:#1a1a1a;fill-opacity:1;fill-rule:nonzero;stroke:none;stroke-width:1.45353"
           id="path891" />
        <path
           d="m 333.71836,231.02727 v 6.09756 l -5.12662,0.97098 v 3.01462 h 5.12662 v 37.66255 l 4.54811,-1.30671 v -36.35584 h 7.97119 v -4.21235 l -7.97119,0.62504 v -9.97126 c 0,-2.67886 1.70936,-4.55828 5.12662,-4.55828 3.18615,0 5.34901,1.14101 6.54091,1.42445 l 1.87942,-4.55973 c -1.47534,-0.56688 -3.52628,-1.19191 -6.31416,-1.19191 -6.94354,0 -11.7809,4.09897 -11.7809,12.36088 z"
           style="fill:#1a1a1a;fill-opacity:1;fill-rule:nonzero;stroke:none;stroke-width:1.45353"
           id="path893" />
        <path
           d="m 381.41323,240.08861 -5.86649,-2.04949 c -6.14264,-2.16867 -8.07875,-4.55975 -8.07875,-8.66452 0,-5.35339 2.90126,-7.63106 8.31277,-7.63106 2.84457,0 5.40425,0.22675 8.07877,1.4201 l 1.02182,5.9842 h 4.95657 l 0.96513,-10.48145 c -4.60916,-1.08433 -9.33313,-1.76603 -14.05714,-1.76603 -10.64715,0 -15.71126,5.52487 -15.71126,13.21845 0,6.49583 3.9289,10.65149 9.27791,12.64429 l 8.42615,3.19052 c 6.83018,2.56694 8.47702,4.78649 8.47702,8.9494 0,5.41008 -4.55393,8.48866 -10.24307,8.48866 -4.27048,0 -6.6601,-0.85177 -9.05116,-2.27769 l -1.02184,-6.89847 h -5.06411 l -0.85759,10.94076 c 4.44055,1.82273 7.74444,3.0219 14.39872,3.0219 11.83905,0 17.9875,-6.09904 17.9875,-14.70107 0.11338,-8.37381 -5.8025,-11.28089 -11.95095,-13.3885 z"
           style="fill:#1a1a1a;fill-opacity:1;fill-rule:nonzero;stroke:none;stroke-width:1.45353"
           id="path895" />
        <path
           d="m 412.48691,264.07194 c -5.68916,0 -8.64709,-4.61061 -8.64709,-10.82159 0,-3.87801 0.56832,-7.75023 2.10182,-9.91309 0.79943,-1.36923 3.36056,-2.04949 5.1266,-2.04949 3.07134,0 5.06413,0.68026 6.20078,1.24857 l 0.85615,4.78651 h 3.58295 l 0.45497,-7.75025 c -1.59018,-1.07854 -5.4624,-2.39108 -9.50468,-2.39108 -8.70521,0 -14.11528,6.7793 -14.11528,16.29559 0,9.57299 4.55392,14.58622 13.26352,14.58622 5.29086,0 9.61803,-2.04948 11.15587,-2.62216 l -0.74274,-3.13528 c -2.7879,0.8009 -6.08741,1.76605 -9.73287,1.76605 z"
           style="fill:#1a1a1a;fill-opacity:1;fill-rule:nonzero;stroke:none;stroke-width:1.45353"
           id="path897" />
        <path
           d="m 440.88897,237.23821 c -11.09482,0 -15.30863,8.37528 -15.30863,15.50051 0,8.94361 3.69634,15.49614 13.26351,15.49614 11.15152,0 15.30718,-8.37527 15.30718,-15.49614 0.0581,-9.00465 -3.6382,-15.50051 -13.26206,-15.50051 z m 5.41008,25.12581 c -1.14104,1.14104 -3.07715,1.70792 -5.86502,1.70792 -6.20078,0 -9.50468,-4.26903 -9.50468,-11.16171 0,-3.30534 0.74422,-8.03513 2.61782,-9.91455 1.14102,-1.14103 3.07713,-1.70791 5.86501,-1.70791 6.20078,0 9.50467,4.26904 9.50467,11.10501 0,3.36203 -0.79507,8.09182 -2.6178,9.97124 z"
           style="fill:#1a1a1a;fill-opacity:1;fill-rule:nonzero;stroke:none;stroke-width:1.45353"
           id="path899" />
        <path
           d="m 468.03956,255.41321 v -14.30278 h 7.97266 v -3.87222 l -7.97266,0.62503 v -6.60922 l -5.68912,1.14102 v 5.52489 l -4.55394,0.57413 v 2.73121 h 4.55394 v 15.21561 c 0,7.29093 0.28344,11.79398 7.62523,11.79398 2.2777,0 6.14992,-0.62503 7.28513,-1.19916 l 0.62501,-3.13382 c -1.59015,0.23255 -3.01607,0.46077 -4.1513,0.46077 -5.4682,-0.11483 -5.69495,-3.0219 -5.69495,-8.94944 z"
           style="fill:#1a1a1a;fill-opacity:1;fill-rule:nonzero;stroke:none;stroke-width:1.45353"
           id="path901" />
        <path
           d="m 491.37609,261.51226 v -42.05077 h -10.81723 v 3.02043 l 4.10042,0.39681 c 1.31109,0.11483 2.16286,0.63085 2.16286,2.22683 v 36.4067 c 0,1.70791 -0.85177,2.16286 -2.16286,2.33293 l -4.10042,0.40261 v 3.13528 h 14.80282 v -3.13528 l -2.95796,-0.40261 c -1.31107,-0.17007 -1.02763,-0.62502 -1.02763,-2.33293 z"
           style="fill:#1a1a1a;fill-opacity:1;fill-rule:nonzero;stroke:none;stroke-width:1.45353"
           id="path903" />
        <path
           d="m 523.25212,261.51226 v -15.7287 c 0,-6.21096 -5.52489,-8.60204 -11.38411,-8.60204 -3.58878,0 -5.80976,0.73841 -10.47708,2.39108 l 0.40408,7.18192 h 3.58298 l 0.91426,-4.61643 c 1.2486,-0.56688 3.58153,-1.19773 5.57576,-1.19773 3.75741,0 6.83016,1.08435 6.83016,4.8432 v 4.16292 l -10.19219,1.36776 c -5.51907,0.73842 -8.5337,3.9856 -8.5337,8.82879 0,4.72981 3.07132,7.9203 7.73864,7.9203 3.98559,0 7.56854,-2.10617 10.87388,-5.5801 l 0.4535,4.72398 h 10.46982 v -3.13527 l -4.14983,-0.39682 c -1.31254,0.0567 -2.10617,-0.45495 -2.10617,-2.16286 z m -4.55395,-2.62364 c -2.84456,1.59598 -5.58157,4.89988 -8.93777,4.89988 -2.61636,0 -4.61063,-1.42448 -4.61063,-4.04228 0,-2.73702 1.87942,-4.50307 4.78213,-4.95657 l 8.70959,-1.42592 v 5.52489 z"
           style="fill:#1a1a1a;fill-opacity:1;fill-rule:nonzero;stroke:none;stroke-width:1.45353"
           id="path905" />
        <path
           d="m 560.24894,261.51226 v -15.38714 c 0,-4.44053 -2.44774,-8.77207 -9.56136,-8.77207 -5.58157,0 -8.59765,2.73556 -10.47563,4.61498 l -0.56832,-4.8432 h -8.42616 v 3.92891 l 2.95796,0.4041 c 1.31255,0.11337 1.02764,0.62356 1.02764,2.33292 v 17.7215 c 0,1.70791 0.28491,2.21955 -1.02764,2.33293 l -2.95796,0.40261 v 3.13528 h 14.22866 v -3.07859 l -3.41288,-0.4593 c -1.31111,-0.11338 -1.14104,-0.62502 -1.14104,-2.33293 v -14.98449 c 1.14104,-2.16869 3.70215,-4.72981 7.74443,-4.72981 4.03792,0 5.91735,2.04949 5.91735,5.75164 v 19.77099 h 10.24887 v -3.12948 l -3.24865,-0.40261 c -1.30527,-0.11338 -1.30527,-0.56833 -1.30527,-2.27624 z"
           style="fill:#1a1a1a;fill-opacity:1;fill-rule:nonzero;stroke:none;stroke-width:1.45353"
           id="path907" />
        <path
           d="m 414.48114,157.58448 h 12.86524 v 3.30389 h 8.1369 v -2.96376 h 26.00956 v -12.6443 l 11.72568,-3.82135 v -11.04977 l 2.50299,-0.51601 0.0567,10.94076 14.29114,-4.78649 -8.76625,8.94797 v 22.10391 l 2.78786,0.62502 v -21.59227 l 10.35644,-10.53813 9.96544,11.90591 v 28.60557 l 26.06625,31.16525 h 6.71679 v 4.89987 h 12.52076 v -4.84318 h 5.17748 v 4.78649 l 12.63849,0.11338 v -4.95656 h 7.00168 v -18.29419 h 13.43359 v 49.46088 c -0.63085,-0.28487 -3.3039,-1.08432 -6.43336,-1.08432 -9.39128,0 -14.68798,7.92032 -14.68798,16.57903 0,8.94796 4.55393,14.35947 11.66755,14.35947 5.86501,0 8.93777,-3.70215 9.73723,-4.89987 l 0.51163,4.16146 h 9.27793 v -3.24865 l -3.58878,-0.40261 c -1.30529,-0.11338 -1.42012,-0.62502 -1.42012,-2.38962 v -75.49372 h -0.0567 l -11.49747,-9.28954 -11.55414,8.26189 v 17.66337 h -6.94355 v 4.7298 h -3.70215 v -4.7298 h -14.0586 v 4.90132 h -3.41289 v -4.90132 h -9.22124 l -23.67664,-28.31487 -0.0567,-28.60558 -13.66031,-16.35227 -14.9162,5.01324 V 123.5674 l -11.83758,2.85038 0.0567,11.67916 -11.66898,3.93472 v 11.11227 h -5.74584 v -22.67805 l -15.9947,-8.72122 v -13.04693 h -12.29255 v 11.50909 l -29.14337,8.83459 -15.0819,-6.55254 -6.71679,12.47424 -11.72421,7.35344 v 17.83342 l -26.06771,7.40431 -30.33673,8.49446 v -7.58018 c 0,-1.76605 0.2282,-2.33874 1.98843,-2.62363 l 3.64402,-0.62502 v -4.5016 h -18.21425 v 4.5016 l 4.15565,0.62502 c 1.70936,0.28489 2.10763,0.91427 2.10763,2.62363 v 9.05552 l -9.56136,2.90707 -13.66177,3.82135 v -15.78394 c 0,-1.76605 0.0567,-2.33874 1.82273,-2.62363 l 3.80971,-0.62502 v -4.5016 h -16.84647 v 4.5016 l 3.36203,0.62502 c 1.76023,0.28489 1.64685,0.91427 1.64685,2.62363 v 35.32817 c 0,1.7646 0.0567,2.33293 -1.64685,2.61637 l -3.36203,0.63083 v 3.87222 h 16.95985 v -3.87222 l -3.80972,-0.63083 c -1.76604,-0.28344 -1.82273,-0.90846 -1.82273,-2.61637 v -14.18941 l 23.22314,-7.06418 v 21.25359 c 0,1.7646 -0.39827,2.33293 -2.10618,2.61637 l -4.15711,0.63083 v 3.87222 h 18.21425 v -3.87222 l -3.6382,-0.63083 c -1.76604,-0.28344 -1.99425,-0.90846 -1.99425,-2.61637 v -23.024 l 61.07175,-17.09066 V 146.5914 l 7.51187,-1.31109 v 16.18221 l 2.78788,-0.63084 v -22.50654 l 5.58157,-9.97125 11.95097,5.19057 -7.39703,5.63681 v 18.91922 l 2.78787,-0.63083 v -16.40897 l 26.46452,-5.58012 m -42.28916,7.00604 -5.17895,0.91428 5.17895,-3.24865 z m 19.92361,-5.12662 6.65428,-5.12807 23.51239,-7.18192 -6.83015,7.46536 z m 39.95479,17.14591 v 2.85038 h -2.16286 l 0.34013,-2.73555 -12.40592,0.11919 v -19.94687 l 9.67471,-11.22565 h -0.11337 l -0.0567,-10.19655 h 3.18615 v 11.05413 l 15.93658,8.54534 v 21.53558 z m 143.82586,31.34258 5.18476,-3.65128 4.38241,3.65128 z m 12.12831,73.49947 c -0.5727,0.85177 -3.41727,4.78648 -7.85781,4.78648 -5.23565,0 -8.0802,-3.87802 -8.0802,-11.33902 0,-2.67886 0.73838,-8.20375 2.6178,-9.79973 1.30674,-1.14103 3.70216,-1.65122 5.85922,-1.65122 1.99279,0 4.6106,0.56688 7.46099,2.38961 z"
           style="fill:#1a1a1a;fill-opacity:1;fill-rule:nonzero;stroke:none;stroke-width:1.45353"
           id="path909" />
        <path
           d="m 380.44661,171.26225 c 0,-2.45357 -0.51599,-3.76465 -3.13382,-3.76465 -3.41145,0 -4.15566,1.31108 -4.15566,3.9914 0,2.27624 0.85759,3.36203 3.30389,3.36203 2.90125,-0.0581 3.98559,-0.68752 3.98559,-3.58878 z"
           style="fill:#1a1a1a;fill-opacity:1;fill-rule:nonzero;stroke:none;stroke-width:1.45353"
           id="path911" />
      </g>
    </g>
  </g>
</svg>
